#!OML:ASF F:\VICON\USERDATA\INSTALL\rory3\rory3.ASF
:FULLY-SPECIFIED
:DEGREES
2899
root 0.26693 17.1232 -0.652948 -7.32382 8.06292 -1.47946
lowerback -3.00813 1.55814 -1.65904
upperback 5.13423 2.31743 -1.7401
thorax 7.04802 1.11212 -0.678428
lowerneck 20.1226 -15.4471 -22.1679
upperneck 25.6135 -28.3499 17.9594
head 11.3357 -15.1598 7.97033
rclavicle -6.75868e-015 0
rhumerus 62.8641 48.7847 -5.02723
rradius 74.447
rwrist -17.1394
rhand 9.83242 -3.57127
rfingers 7.12502
rthumb 34.9674 -30.1349
lclavicle -6.75868e-015 0
lhumerus 71.8528 5.73951 53.3669
lradius 109.891
lwrist 63.623
lhand 40.3173 30.7858
lfingers 7.12502
lthumb 62.6577 41.436
rfemur 5.71432 6.92993 21.1476
rtibia 18.7158
rfoot -15.7818 -15.4884
rtoes -22.7953
lfemur -1.2752 -15.3165 -18.9707
ltibia 26.2898
lfoot -17.2424 2.21019
ltoes -19.3412
2900
root 0.266254 17.1251 -0.63707 -7.29964 8.00525 -1.47109
lowerback -3.00763 1.61257 -1.61846
upperback 5.08449 2.3879 -1.76603
thorax 6.99756 1.15025 -0.722387
lowerneck 19.8423 -15.4139 -22.0162
upperneck 25.4027 -28.234 18.0982
head 11.2581 -15.0694 7.99734
rclavicle -2.08227e-014 -1.11319e-014
rhumerus 61.7858 48.8128 -4.78309
rradius 76.6981
rwrist -17.3888
rhand 10.3387 -2.60482
rfingers 7.12502
rthumb 35.4475 -29.0552
lclavicle -2.08227e-014 -1.11319e-014
lhumerus 71.8409 6.39639 52.6238
lradius 109.939
lwrist 63.8049
lhand 39.7752 30.388
lfingers 7.12502
lthumb 62.2086 41.6197
rfemur 5.74995 7.08189 21.1909
rtibia 18.688
rfoot -15.7279 -15.6102
rtoes -22.8059
lfemur -1.16548 -15.2968 -18.9678
ltibia 26.1447
lfoot -17.1449 2.17487
ltoes -18.9908
2901
root 0.266684 17.1277 -0.620385 -7.2454 7.90771 -1.59383
lowerback -2.86554 1.66156 -1.76504
upperback 4.81429 2.43191 -1.47963
thorax 6.60753 1.1589 -0.345855
lowerneck 19.8536 -15.303 -22.264
upperneck 25.2701 -28.0922 18.0683
head 11.1992 -15.0216 8.04106
rclavicle -1.3418e-014 3.02153e-014
rhumerus 60.8949 49.1131 -4.04019
rradius 78.8816
rwrist -17.6976
rhand 11.1178 -1.32844
rfingers 7.12502
rthumb 36.1857 -27.5991
lclavicle -1.3418e-014 3.02153e-014
lhumerus 71.3975 6.99813 52.1472
lradius 109.94
lwrist 63.8771
lhand 39.3418 30.1223
lfingers 7.12502
lthumb 61.8473 41.805
rfemur 5.74922 7.30419 21.3896
rtibia 18.6506
rfoot -15.6728 -15.7682
rtoes -22.8373
lfemur -1.10478 -15.2196 -18.802
ltibia 25.995
lfoot -17.079 2.16835
ltoes -18.6966
2902
root 0.271416 17.1286 -0.603062 -7.19451 7.91393 -1.38471
lowerback -2.47853 1.58053 -2.76107
upperback 4.42141 2.31841 -0.834623
thorax 5.90356 1.04731 0.852485
lowerneck 19.8465 -15.0507 -23.1576
upperneck 25.2451 -27.832 17.8491
head 11.2307 -14.9697 8.10696
rclavicle -2.71962e-014 -9.54166e-015
rhumerus 60.6554 49.5735 -2.268
rradius 81.0214
rwrist -17.9607
rhand 11.9382 0.205255
rfingers 7.12502
rthumb 36.9623 -25.8689
lclavicle -2.71962e-014 -9.54166e-015
lhumerus 70.4536 7.85684 52.1627
lradius 109.895
lwrist 63.9578
lhand 39.2411 29.8234
lfingers 7.12502
lthumb 61.7631 41.6091
rfemur 5.82692 7.31678 21.1601
rtibia 18.6035
rfoot -15.7134 -15.762
rtoes -23.334
lfemur -0.971222 -15.2742 -19.0684
ltibia 25.8422
lfoot -17.1227 2.26228
ltoes -18.5498
2903
root 0.276576 17.13 -0.582386 -7.19459 7.90851 -1.22822
lowerback -2.93057 1.55494 -2.75776
upperback 4.59009 2.31345 -0.958875
thorax 6.34829 1.04015 0.738397
lowerneck 19.6356 -14.8575 -23.0958
upperneck 24.7452 -27.5515 18.3503
head 11.0588 -14.8096 8.32211
rclavicle 1.44119e-015 7.95139e-015
rhumerus 59.4851 49.212 -2.4557
rradius 82.9148
rwrist -18.1999
rhand 12.6929 1.30302
rfingers 7.12502
rthumb 37.6758 -24.5837
lclavicle 1.44119e-015 7.95139e-015
lhumerus 70.5654 8.77933 51.263
lradius 109.851
lwrist 63.9142
lhand 39.131 29.5153
lfingers 7.12502
lthumb 61.671 41.4129
rfemur 5.94842 7.2877 20.9824
rtibia 18.562
rfoot -15.6933 -15.7934
rtoes -24.211
lfemur -0.776474 -15.2683 -19.2944
ltibia 25.7046
lfoot -17.165 2.39785
ltoes -19.1754
2904
root 0.279746 17.1307 -0.561826 -7.15515 7.86591 -1.07143
lowerback -3.08089 1.51966 -2.91879
upperback 4.49364 2.28121 -1.00023
thorax 6.32985 1.01825 0.785779
lowerneck 19.5702 -14.6059 -23.1445
upperneck 24.3977 -27.2069 18.6323
head 10.8892 -14.6442 8.49448
rclavicle 1.31819e-014 -7.95139e-016
rhumerus 58.3326 49.1742 -2.5873
rradius 84.9486
rwrist -18.6607
rhand 13.7975 1.97517
rfingers 7.12502
rthumb 38.7186 -23.6249
lclavicle 1.31819e-014 -7.95139e-016
lhumerus 70.3157 9.53791 50.441
lradius 109.946
lwrist 63.6621
lhand 38.8075 29.3961
lfingers 7.12502
lthumb 61.3995 41.6182
rfemur 5.99815 7.32973 20.8137
rtibia 18.5745
rfoot -15.7664 -15.7815
rtoes -23.7603
lfemur -0.617155 -15.3039 -19.5025
ltibia 25.5512
lfoot -17.1962 2.51205
ltoes -19.1193
2905
root 0.281267 17.1322 -0.542764 -7.0957 7.78305 -1.05227
lowerback -2.80369 1.49645 -2.97554
upperback 4.22973 2.22959 -0.930593
thorax 5.88754 0.997153 0.873105
lowerneck 19.1788 -14.4608 -23.2761
upperneck 24.4537 -26.9614 18.5628
head 10.9135 -14.5142 8.49273
rclavicle 5.65915e-014 -2.54444e-014
rhumerus 56.9622 49.2172 -2.83319
rradius 86.8813
rwrist -19.0058
rhand 15.1994 3.41864
rfingers 7.12502
rthumb 40.0393 -21.7955
lclavicle 5.65915e-014 -2.54444e-014
lhumerus 69.9735 10.3069 49.8905
lradius 110.095
lwrist 63.5339
lhand 38.4419 29.7533
lfingers 7.12502
lthumb 61.0915 42.3343
rfemur 5.97486 7.41829 20.8178
rtibia 18.5661
rfoot -15.7859 -15.8569
rtoes -23.482
lfemur -0.536819 -15.2962 -19.5302
ltibia 25.451
lfoot -17.2428 2.65658
ltoes -19.4937
2906
root 0.281975 17.1341 -0.523453 -7.06272 7.71775 -1.1051
lowerback -2.28663 1.38884 -2.99149
upperback 3.76886 2.04711 -0.856495
thorax 5.10896 0.92001 0.923851
lowerneck 18.8474 -14.2398 -23.4515
upperneck 24.8508 -26.6216 18.2189
head 11.0022 -14.3587 8.42114
rclavicle -6.32555e-014 1.51076e-014
rhumerus 55.6297 49.5058 -3.28652
rradius 88.801
rwrist -19.4026
rhand 16.9995 4.93024
rfingers 7.12502
rthumb 41.7303 -19.7495
lclavicle -6.32555e-014 1.51076e-014
lhumerus 69.2304 11.0807 49.1209
lradius 110.18
lwrist 63.4644
lhand 38.0189 29.7913
lfingers 7.12502
lthumb 60.7336 42.7777
rfemur 5.96242 7.49722 20.9169
rtibia 18.5422
rfoot -15.8424 -15.9421
rtoes -23.5465
lfemur -0.459966 -15.331 -19.478
ltibia 25.3966
lfoot -17.2993 2.58838
ltoes -18.7084
2907
root 0.284848 17.1343 -0.504281 -7.06322 7.67001 -1.1589
lowerback -2.73485 1.35589 -2.77188
upperback 4.00846 2.01879 -0.902044
thorax 5.62682 0.906254 0.768167
lowerneck 18.2035 -14.2219 -23.3737
upperneck 24.7483 -26.4834 18.3365
head 11.0302 -14.2388 8.41798
rclavicle -3.09048e-014 1.43125e-014
rhumerus 53.9388 48.6776 -4.21877
rradius 90.5439
rwrist -19.725
rhand 18.6708 5.83652
rfingers 7.12502
rthumb 43.2949 -18.3044
lclavicle -3.09048e-014 1.43125e-014
lhumerus 69.4069 12.2072 48.4987
lradius 110.238
lwrist 63.3454
lhand 37.7143 29.36
lfingers 7.12502
lthumb 60.4749 42.6319
rfemur 6.10811 7.53194 21.0039
rtibia 18.4685
rfoot -15.9288 -15.9301
rtoes -23.4075
lfemur -0.380151 -15.3238 -19.4378
ltibia 25.3966
lfoot -17.3318 2.52163
ltoes -18.2045
2908
root 0.288783 17.1348 -0.48386 -7.0832 7.57095 -1.25683
lowerback -2.97949 1.37344 -2.55098
upperback 4.05898 2.04155 -0.925043
thorax 5.82745 0.924325 0.630202
lowerneck 18.0367 -14.0806 -23.2411
upperneck 24.3588 -26.2416 18.6441
head 10.8619 -14.0956 8.54592
rclavicle 2.09531e-014 -7.95139e-015
rhumerus 51.9789 48.083 -5.35977
rradius 92.1727
rwrist -19.8556
rhand 20.133 6.51852
rfingers 7.12502
rthumb 44.6589 -17.1141
lclavicle 2.09531e-014 -7.95139e-015
lhumerus 69.4226 13.0387 47.939
lradius 110.35
lwrist 63.3169
lhand 37.3015 29.3387
lfingers 7.12502
lthumb 60.1231 42.9891
rfemur 6.28574 7.63264 21.1376
rtibia 18.4067
rfoot -15.9329 -15.858
rtoes -23.0456
lfemur -0.268471 -15.3515 -19.3724
ltibia 25.4058
lfoot -17.4337 2.6695
ltoes -18.376
2909
root 0.292185 17.1335 -0.462562 -7.05131 7.45676 -1.35522
lowerback -3.15752 1.41127 -2.36981
upperback 3.95279 2.08521 -0.933834
thorax 5.82255 0.954482 0.526871
lowerneck 17.9349 -13.9217 -23.0927
upperneck 24.0896 -25.9738 18.8222
head 10.7014 -13.9473 8.63416
rclavicle -1.34568e-014 2.94201e-014
rhumerus 49.8799 47.667 -6.54217
rradius 93.7985
rwrist -20.0391
rhand 21.4923 7.20541
rfingers 7.12502
rthumb 45.9226 -15.9213
lclavicle -1.34568e-014 2.94201e-014
lhumerus 69.2931 13.7219 47.4019
lradius 110.446
lwrist 63.3523
lhand 37.0636 29.3524
lfingers 7.12502
lthumb 59.9197 43.2167
rfemur 6.33928 7.72024 21.2634
rtibia 18.374
rfoot -15.8839 -15.8852
rtoes -22.9897
lfemur -0.205117 -15.3641 -19.2848
ltibia 25.3865
lfoot -17.535 2.77618
ltoes -18.4027
2910
root 0.293674 17.1317 -0.443691 -7.04465 7.34436 -1.37177
lowerback -3.18612 1.46234 -2.24403
upperback 3.87094 2.14737 -0.982081
thorax 5.75726 0.992979 0.41119
lowerneck 17.3722 -13.8802 -22.9324
upperneck 24.2132 -25.8085 18.7695
head 10.7606 -13.8187 8.57311
rclavicle 1.00526e-014 1.43125e-014
rhumerus 47.8611 47.095 -7.53985
rradius 95.5354
rwrist -20.5101
rhand 22.4562 7.99931
rfingers 7.12502
rthumb 46.8159 -14.7476
lclavicle 1.00526e-014 1.43125e-014
lhumerus 69.2617 14.4341 46.8634
lradius 110.492
lwrist 63.4948
lhand 36.785 29.2358
lfingers 7.12502
lthumb 59.6809 43.3468
rfemur 6.39646 7.79448 21.3051
rtibia 18.3586
rfoot -15.9278 -15.8692
rtoes -23.0312
lfemur -0.0810639 -15.3742 -19.2852
ltibia 25.3153
lfoot -17.5802 2.95981
ltoes -19.3831
2911
root 0.295037 17.1312 -0.422421 -7.02868 7.24624 -1.19684
lowerback -3.08779 1.48925 -2.38101
upperback 3.77108 2.18823 -1.039
thorax 5.59244 1.01131 0.427484
lowerneck 16.9786 -13.82 -22.7946
upperneck 24.1394 -25.6169 18.7308
head 10.7136 -13.6908 8.53634
rclavicle -1.81453e-014 -1.43125e-014
rhumerus 45.7996 46.4156 -8.4362
rradius 97.404
rwrist -21.19
rhand 23.4177 8.5985
rfingers 7.12502
rthumb 47.7046 -13.751
lclavicle -1.81453e-014 -1.43125e-014
lhumerus 69.1514 15.2023 46.3393
lradius 110.645
lwrist 63.6222
lhand 36.4982 29.0112
lfingers 7.12502
lthumb 59.4344 43.3719
rfemur 6.47185 7.83462 21.1246
rtibia 18.3637
rfoot -16.0988 -15.7716
rtoes -22.7124
lfemur 0.0983696 -15.368 -19.5124
ltibia 25.2074
lfoot -17.5738 3.4243
ltoes -22.365
2912
root 0.298803 17.1293 -0.39861 -7.06278 7.16189 -0.989407
lowerback -3.0608 1.46957 -2.54227
upperback 3.7158 2.17101 -1.08812
thorax 5.51574 0.998502 0.463678
lowerneck 16.8222 -13.6428 -22.8707
upperneck 23.8458 -25.3634 18.9772
head 10.6038 -13.5625 8.66968
rclavicle -1.75303e-014 2.70347e-014
rhumerus 43.6442 45.5886 -9.53031
rradius 99.0656
rwrist -21.851
rhand 24.374 8.8928
rfingers 7.12502
rthumb 48.5858 -13.042
lclavicle -1.75303e-014 2.70347e-014
lhumerus 68.9303 16.0676 45.7936
lradius 110.81
lwrist 63.7851
lhand 36.0576 28.6906
lfingers 7.12502
lthumb 59.0546 43.4264
rfemur 6.62282 7.86055 20.9053
rtibia 18.3587
rfoot -16.2222 -15.7083
rtoes -22.8919
lfemur 0.359126 -15.4005 -19.82
ltibia 25.113
lfoot -17.6902 3.6156
ltoes -22.6213
2913
root 0.300542 17.1279 -0.374866 -7.05736 7.06522 -0.93852
lowerback -3.18566 1.44412 -2.53591
upperback 3.63826 2.14089 -1.12929
thorax 5.50829 0.985127 0.417716
lowerneck 16.7145 -13.4413 -22.9441
upperneck 23.6199 -25.0815 19.1734
head 10.4966 -13.4262 8.79457
rclavicle -9.9206e-015 -1.82882e-014
rhumerus 41.3972 44.7115 -10.8614
rradius 100.617
rwrist -22.7421
rhand 25.3827 8.86746
rfingers 7.12502
rthumb 49.5123 -12.6076
lclavicle -9.9206e-015 -1.82882e-014
lhumerus 68.7043 16.9128 45.1837
lradius 110.883
lwrist 63.9272
lhand 35.8961 28.6804
lfingers 7.12502
lthumb 58.9151 43.5514
rfemur 6.75822 7.92296 20.8729
rtibia 18.2436
rfoot -16.2297 -15.7356
rtoes -23.2177
lfemur 0.496701 -15.3839 -19.912
ltibia 25.0799
lfoot -17.7911 3.55746
ltoes -20.9997
